<?xml version="1.0" encoding="UTF-8"?>
<svg id="Livello_1" data-name="Livello 1" xmlns="http://www.w3.org/2000/svg" viewBox="0 0 814.9 1110.59">
  <defs>
    <style>
      .cls-1 {
        fill: #fff;
      }

      .cls-2 {
        fill: #217b7f;
      }
    </style>
  </defs>
  <path class="cls-2" d="M407.24,0c412.31,0,407.22,406.88,407.22,406.88,15.95,283.8-407.22,703.71-407.22,703.71C407.24,1110.59-3.62,695.03.02,406.88.02,406.88-6.88,0,407.24,0Z"/>
  <path class="cls-1" d="M282.74,638.31v-149.13s-18.57-12.47-18.57-12.47v-37.37h24.28v10.71c0,.13.56,1.64.77,1.69l24.46.45v-12.85h24.76v12.85l24.76-.48v-12.38h24.76v12.85h31.9v-12.85h24.28v12.38l25.23.48v-12.85h24.28v12.85l25.23-.48v-12.38h24.28v38.08l-17.59,11.21-.97,1.41.47,148.27h-68.56l.02-83.08c-.69-11.97-4.91-18.71-15.89-23.63-17.65-7.91-58.65-8.06-75.87.95-12.93,6.77-13.5,16.03-13.98,29.34-.9,25.27.72,51.1.02,76.42h-68.08Z"/>
  <path class="cls-1" d="M689.34,417.91l-14.75,9.76-.48.94c-.24,43.16.32,86.34.03,129.5,0,1.36-.51,2.53-.52,3.77-.13,18.07.12,36.14.04,54.2-12.25,6.5-25.81,10.89-39.45,13.5-16.74,3.2-33.37,2.93-50.3,3.5-12.88.44-25.75,1.04-38.58,2.36-4.7.48-9.35,1.43-14.05,1.9l.47-145.33,18-12.57.6-44.67-.74-1.64h-17.85c-.19-1.53.51-3.81-.48-4.99-1.18-1.41-8.44-5.4-10.62-6.99-1.73-1.26-3.57-2.42-5.09-3.96v-36.89h24.76v12.38h24.76v-12.38h24.76v12.38h25.23v-11.19c0-.16.63-.72.48-1.19h24.28v12.38h24.76v-12.38h24.76v37.61Z"/>
  <path class="cls-1" d="M142.77,380.3v12.38h24.76v-12.38h24.04l.71.71v11.66h25.23v-12.38h24.76v12.38h24.76v-12.38h24.76v37.37l-15.27,10.44-.44,5.03h-18.57v46.41l17.87,12.12.69,1.22c.05,22.38-.03,44.75-.01,67.13,0,4.07,0,8.28,0,12.34-.01,21.67.05,43.34.02,65-4.67-.66-9.35-1.43-14.05-1.9-12.69-1.29-25.37-1.93-38.11-2.36-28.93-.99-54.33-.84-81.48-12.79-1.13-.5-7.88-3.71-8.26-4.12-.39-.44-.54-.81-.5-1.41-.08-62.05.4-124.15-.46-186.14l-.68-1.23-14.07-9.02v-38.08h24.28Z"/>
  <path class="cls-1" d="M352.73,336.51v10h20.47v-10h20l.47,9.52h20.47v-9.52h20l.48,10h20.47v-10h20v96.63h-12.38v12.38h-12.38v-12.38h-37.14v12.38h-18.57v-11.66l-.71-.71h-36.18l-.71.71v11.66h-11.9v-11.66l-.71-.71h-12.14v-96.63h20.47ZM376.54,414.58c-.21-6.89.28-13.84.02-20.73-.15-4.13-.26-10.29-1.69-14.02-1.87-4.85-7.07-11.04-12.58-7.35-3.89,2.6-7.17,10.63-7.17,15.2v26.9h21.42ZM452.71,414.58c-.17-6.1.23-12.25.02-18.35-.23-6.76-.08-13.34-3.58-19.27-7.87-13.32-17.17-.45-17.88,9.75-.65,9.22.78,18.66-.46,27.87h21.9Z"/>
  <path class="cls-1" d="M477.47,307.47v7.62h16.66v-7.62h15.71v7.62h15.24v-7.62h15.24v7.62h15.71v-7.62h15.71v23.09l-10,6.66v36.89h-3.81v12.38h-10.95v-12.38h-37.61v47.13l14.14,9.66.62,2.24h-11.43l-.48,12.38h-10.71c-.15,0-.68.65-1.19.48v-12.85h-18.57v-102.82h-19.04v-22.85c4.91-.07,9.88-1.15,14.76,0Z"/>
  <path class="cls-1" d="M345.11,307.47v22.85h-19.52l.48,102.82h-18.33l-.71.71v12.14c-.35.13-.57-.48-.71-.48h-11.19v-11.66l-.71-.71h-11.19c-.24-1.37.81-2.06,1.68-2.84,3.86-3.5,9.72-6.02,13.56-9.77v-45.7l-.71-.71h-36.66l-.61.71c-.01.19.37.36.37.48v11.19h-10.95v-11.66c-.9-1.17-2.5-.63-3.81-.71l-.07-36.82-9.92-6.03v-23.8h15.24v7.62h15.71v-7.62h15.71v7.62h15.24v-7.62h15.71v7.62h16.19v-7.62c5.09-1.11,10.14-.04,15.24,0Z"/>
  <path class="cls-1" d="M425.58,172.76v5.24h12.38v19.04l-24.76-.47v-5.24s-6.19,0-6.19,0v20.23c0,.21,1.68,2.96,1.99,3.73,10.92,27.47,24.01,54.1,35.15,81.48v43.56h-3.81v-10h-32.85v10h-7.14v-10h-33.33v10h-3.81v-41.65c11.45-29.55,24.8-58.57,37.61-87.59v-38.32h24.76Z"/>
</svg>