<?xml version="1.0" encoding="UTF-8"?>
<svg id="Livello_1" xmlns="http://www.w3.org/2000/svg" version="1.1" viewBox="0 0 814.9 1110.6">
  <!-- Generator: Adobe Illustrator 29.3.1, SVG Export Plug-In . SVG Version: 2.1.0 Build 151)  -->
  <defs>
    <style>
      .st0 {
        fill: #fff;
      }

      .st1 {
        fill: #9b1818;
      }
    </style>
  </defs>
  <path class="st1" d="M407.2,0c412.3,0,407.2,406.9,407.2,406.9,16,283.8-407.2,703.7-407.2,703.7,0,0-410.9-415.6-407.2-703.7C0,406.9-6.9,0,407.2,0Z"/>
  <path class="st0" d="M282.7,638.3v-149.1l-18.6-12.5v-37.4h24.3v10.7c0,.1.6,1.6.8,1.7l24.5.5v-12.9h24.8v12.9l24.8-.5v-12.4h24.8v12.9h31.9v-12.9h24.3v12.4l25.2.5v-12.9h24.3v12.9l25.2-.5v-12.4h24.3v38.1l-17.6,11.2-1,1.4.5,148.3h-68.6v-83.1c-.7-12-4.9-18.7-15.9-23.6-17.6-7.9-58.6-8.1-75.9,1-12.9,6.8-13.5,16-14,29.3-.9,25.3.7,51.1,0,76.4h-68.1,0Z"/>
  <path class="st0" d="M689.3,417.9l-14.8,9.8-.5.9c-.2,43.2.3,86.3,0,129.5,0,1.4-.5,2.5-.5,3.8-.1,18.1.1,36.1,0,54.2-12.2,6.5-25.8,10.9-39.5,13.5-16.7,3.2-33.4,2.9-50.3,3.5-12.9.4-25.8,1-38.6,2.4-4.7.5-9.3,1.4-14,1.9l.5-145.3,18-12.6.6-44.7-.7-1.6h-17.8c-.2-1.5.5-3.8-.5-5-1.2-1.4-8.4-5.4-10.6-7-1.7-1.3-3.6-2.4-5.1-4v-36.9h24.8v12.4h24.8v-12.4h24.8v12.4h25.2v-11.2c0-.2.6-.7.5-1.2h24.3v12.4h24.8v-12.4h24.8v37.6h0Z"/>
  <path class="st0" d="M142.8,380.3v12.4h24.8v-12.4h24l.7.7v11.7h25.2v-12.4h24.8v12.4h24.8v-12.4h24.8v37.4l-15.3,10.4-.4,5h-18.6v46.4l17.9,12.1.7,1.2c0,22.4,0,44.8,0,67.1v12.3c0,21.7,0,43.3,0,65-4.7-.7-9.4-1.4-14-1.9-12.7-1.3-25.4-1.9-38.1-2.4-28.9-1-54.3-.8-81.5-12.8-1.1-.5-7.9-3.7-8.3-4.1-.4-.4-.5-.8-.5-1.4,0-62,.4-124.1-.5-186.1l-.7-1.2-14.1-9v-38.1h24.3Z"/>
  <path class="st0" d="M352.7,336.5v10h20.5v-10h20l.5,9.5h20.5v-9.5h20l.5,10h20.5v-10h20v96.6h-12.4v12.4h-12.4v-12.4h-37.1v12.4h-18.6v-11.7l-.7-.7h-36.2l-.7.7v11.7h-11.9v-11.7l-.7-.7h-12.1v-96.6h20.5,0ZM376.5,414.6c-.2-6.9.3-13.8,0-20.7-.1-4.1-.3-10.3-1.7-14-1.9-4.9-7.1-11-12.6-7.4-3.9,2.6-7.2,10.6-7.2,15.2v26.9h21.4ZM452.7,414.6c-.2-6.1.2-12.2,0-18.4-.2-6.8,0-13.3-3.6-19.3-7.9-13.3-17.2-.5-17.9,9.8-.6,9.2.8,18.7-.5,27.9h21.9Z"/>
  <path class="st0" d="M477.5,307.5v7.6h16.7v-7.6h15.7v7.6h15.2v-7.6h15.2v7.6h15.7v-7.6h15.7v23.1l-10,6.7v36.9h-3.8v12.4h-11v-12.4h-37.6v47.1l14.1,9.7.6,2.2h-11.4l-.5,12.4h-10.7c-.1,0-.7.6-1.2.5v-12.9h-18.6v-102.8h-19v-22.9c4.9,0,9.9-1.1,14.8,0h0Z"/>
  <path class="st0" d="M345.1,307.5v22.9h-19.5l.5,102.8h-18.3l-.7.7v12.1c-.4.1-.6-.5-.7-.5h-11.2v-11.7l-.7-.7h-11.2c-.2-1.4.8-2.1,1.7-2.8,3.9-3.5,9.7-6,13.6-9.8v-45.7l-.7-.7h-36.7l-.6.7c0,.2.4.4.4.5v11.2h-10.9v-11.7c-.9-1.2-2.5-.6-3.8-.7v-36.8c0,0-10-6-10-6v-23.8h15.2v7.6h15.7v-7.6h15.7v7.6h15.2v-7.6h15.7v7.6h16.2v-7.6c5.1-1.1,10.1,0,15.2,0h0Z"/>
  <path class="st0" d="M425.6,172.8v5.2h12.4v19l-24.8-.5v-5.2h-6.2v20.2c0,.2,1.7,3,2,3.7,10.9,27.5,24,54.1,35.1,81.5v43.6h-3.8v-10h-32.9v10h-7.1v-10h-33.3v10h-3.8v-41.6c11.5-29.5,24.8-58.6,37.6-87.6v-38.3h24.8Z"/>
</svg>