<?xml version="1.0" encoding="UTF-8"?>
<svg id="Livello_1" xmlns="http://www.w3.org/2000/svg" version="1.1" viewBox="0 0 814.9 1110.6">
  <!-- Generator: Adobe Illustrator 29.3.1, SVG Export Plug-In . SVG Version: 2.1.0 Build 151)  -->
  <defs>
    <style>
      .st0 {
        fill: #fff;
      }

      .st1 {
        fill: #e0501e;
      }
    </style>
  </defs>
  <path class="st1" d="M407.2,0c412.3,0,407.2,406.9,407.2,406.9,16,283.8-407.2,703.7-407.2,703.7,0,0-410.9-415.6-407.2-703.7C0,406.9-6.9,0,407.2,0Z"/>
  <path class="st0" d="M449.1,575.6h-103.4c-.2-42.8,1.3-92.6,29.4-127.4,32.4-40.1,104.8-58.3,102.2-119.9-2.1-51.3-60.4-72.9-102.3-50.5-22.5,12-33.8,34.4-35.2,59.4h-111.6c-.4-63.4,33.1-118.9,91.7-143.9,92.6-39.5,248.3-16.4,273.4,97.8,13.6,62-6.5,116.4-56.1,154.6-24.3,18.7-52.7,29.6-70.7,56.2-15.1,22.4-16.5,47.4-17.4,73.7h0Z"/>
  <path class="st0" d="M389,620.6c60.3-7.2,100.7,58,61.3,106-41,50-121,17.6-116.3-47,2.1-28.4,26.3-55.6,54.9-59h0Z"/>
</svg>