<?xml version="1.0" encoding="UTF-8"?>
<svg id="Livello_1" data-name="Livello 1" xmlns="http://www.w3.org/2000/svg" viewBox="0 0 814.9 1110.59">
  <defs>
    <style>
      .cls-1 {
        fill: #fff;
      }

      .cls-2 {
        fill: #287eaf;
      }
    </style>
  </defs>
  <path class="cls-2" d="M407.24,0c412.31,0,407.22,406.88,407.22,406.88,15.95,283.8-407.22,703.71-407.22,703.71C407.24,1110.59-3.62,695.03.02,406.88.02,406.88-6.88,0,407.24,0Z"/>
  <path class="cls-1" d="M449.15,575.58h-103.39c-.21-42.84,1.32-92.65,29.41-127.44,32.41-40.14,104.8-58.34,102.23-119.93-2.14-51.32-60.38-72.88-102.28-50.49-22.51,12.03-33.76,34.35-35.23,59.35h-111.62c-.4-63.4,33.15-118.91,91.68-143.89,92.63-39.53,248.33-16.44,273.35,97.85,13.57,61.95-6.54,116.44-56.13,154.63-24.28,18.7-52.7,29.57-70.67,56.23-15.1,22.41-16.48,47.42-17.36,73.7Z"/>
  <path class="cls-1" d="M388.97,620.56c60.27-7.2,100.7,57.95,61.33,105.98-40.98,49.99-121,17.61-116.27-46.95,2.08-28.43,26.33-55.6,54.94-59.02Z"/>
</svg>