<?xml version="1.0" encoding="UTF-8"?>
<svg id="Livello_1" data-name="Livello 1" xmlns="http://www.w3.org/2000/svg" viewBox="0 0 814.9 1110.59">
  <defs>
    <style>
      .cls-1 {
        fill: #55acb9;
      }

      .cls-2 {
        fill: #fff;
      }
    </style>
  </defs>
  <path class="cls-1" d="M407.24,0c412.31,0,407.22,406.88,407.22,406.88,15.95,283.8-407.22,703.71-407.22,703.71C407.24,1110.59-3.62,695.03.02,406.88.02,406.88-6.88,0,407.24,0Z"/>
  <path class="cls-2" d="M414.69,739.77h-14.2l-196.53-62.67c-19.58-21.52,27.24-42.26,40.32-54.48,7.53-7.04,13.07-15.44,18.94-23.79l3.41-1.11c38.91,14.82,77.39,42.73,115.68,57.27,20.55,7.8,28.1,8.38,48.93.73,16.87-6.2,112.79-59.69,119.2-57.77,6.79,6.89,11.14,15.53,18.07,22.35,15.99,15.74,68.95,37.3,37.24,60.8l-191.05,58.69Z"/>
  <path class="cls-2" d="M610.51,347.48c3.45,3.39,5.07,12.06,5.52,16.98,3.13,34.49,3.7,113.05-.06,146.94-.56,5.05-2.39,9.21-4.74,13.57l-198.88,100.16-11.17-.79-195.47-97.49-5.26-9.51-1.23-155.18c1.73-11.72,4.15-14.64,14.3-18.79,59.46-24.35,133.91-35.5,195.07-57.98,60.78,21.15,127.76,34.18,187.87,56.02,3.61,1.31,11.78,3.82,14.07,6.07ZM366.72,363.75c-8.89,1.61-14.57,11.66-15.74,19.97-3.36,23.87-2.63,88.59-.31,113.5,2.26,24.23,22.83,33.6,35.53,11.68l-1.16-136.01c-4.65-5.75-10.57-10.55-18.34-9.14ZM442.47,363.75c-5.09.93-12.61,7.36-13.52,12.72l-.18,130.26c2.53,19.78,31.91,21.1,35.35-7.49,3.09-25.64,2.8-84.96.36-111.08-1.13-12.11-7.37-27.08-22.02-24.4ZM288.57,387.55c-8.71,1.93-12.19,9.31-13.33,17.49-1.98,14.09-1.83,51.66-.22,66.06,3.02,26.9,32.07,28.29,35.37,6.96,1.41-9.1,1.26-75.81-1.1-81.47-3.18-7.66-12.74-10.8-20.72-9.04ZM515.8,387.52c-3.87,1.16-10.33,8.55-11.11,12.62-2.22,11.65-1.6,62.73-.1,75.75,2.72,23.72,30.95,20.25,35.06,1.82,2.42-10.84,1.9-58.16.5-70.51-1.52-13.38-9.6-24.11-24.34-19.67Z"/>
  <path class="cls-2" d="M421.09,139.17c6.34,7.86,2.68,24.65,14.04,34.52,8.72,7.57,37.51,12.8,50.53,18.12,47.72,19.52,88.43,59.32,101.82,110.02l-178.81-52.14-180.98,52.14c13.34-50.42,54.1-90.76,101.82-110.02,13.56-5.47,40.98-9.85,50.53-18.12,11.12-9.63,7.54-24.17,13.23-33.51,4.94-8.11,21.86-8.4,27.83-1Z"/>
</svg>